<svg width="118" height="14" viewBox="0 0 118 14" fill="none" xmlns="http://www.w3.org/2000/svg">
<path d="M6.528 1.624V2.98H4.296V10H2.616V2.98H0.384V1.624H6.528ZM11.4978 3.256C12.0018 3.256 12.4498 3.368 12.8418 3.592C13.2338 3.808 13.5378 4.132 13.7538 4.564C13.9778 4.988 14.0898 5.5 14.0898 6.1V10H12.4098V6.328C12.4098 5.8 12.2778 5.396 12.0138 5.116C11.7498 4.828 11.3898 4.684 10.9338 4.684C10.4698 4.684 10.1018 4.828 9.82978 5.116C9.56578 5.396 9.43378 5.8 9.43378 6.328V10H7.75378V1.12H9.43378V4.18C9.64978 3.892 9.93778 3.668 10.2978 3.508C10.6578 3.34 11.0578 3.256 11.4978 3.256ZM15.2554 6.652C15.2554 5.98 15.3874 5.384 15.6514 4.864C15.9234 4.344 16.2874 3.944 16.7434 3.664C17.2074 3.384 17.7234 3.244 18.2914 3.244C18.7874 3.244 19.2194 3.344 19.5874 3.544C19.9634 3.744 20.2634 3.996 20.4874 4.3V3.352H22.1794V10H20.4874V9.028C20.2714 9.34 19.9714 9.6 19.5874 9.808C19.2114 10.008 18.7754 10.108 18.2794 10.108C17.7194 10.108 17.2074 9.964 16.7434 9.676C16.2874 9.388 15.9234 8.984 15.6514 8.464C15.3874 7.936 15.2554 7.332 15.2554 6.652ZM20.4874 6.676C20.4874 6.268 20.4074 5.92 20.2474 5.632C20.0874 5.336 19.8714 5.112 19.5994 4.96C19.3274 4.8 19.0354 4.72 18.7234 4.72C18.4114 4.72 18.1234 4.796 17.8594 4.948C17.5954 5.1 17.3794 5.324 17.2114 5.62C17.0514 5.908 16.9714 6.252 16.9714 6.652C16.9714 7.052 17.0514 7.404 17.2114 7.708C17.3794 8.004 17.5954 8.232 17.8594 8.392C18.1314 8.552 18.4194 8.632 18.7234 8.632C19.0354 8.632 19.3274 8.556 19.5994 8.404C19.8714 8.244 20.0874 8.02 20.2474 7.732C20.4074 7.436 20.4874 7.084 20.4874 6.676ZM27.5042 3.256C28.2962 3.256 28.9362 3.508 29.4242 4.012C29.9122 4.508 30.1562 5.204 30.1562 6.1V10H28.4762V6.328C28.4762 5.8 28.3442 5.396 28.0802 5.116C27.8162 4.828 27.4562 4.684 27.0002 4.684C26.5362 4.684 26.1682 4.828 25.8962 5.116C25.6322 5.396 25.5002 5.8 25.5002 6.328V10H23.8202V3.352H25.5002V4.18C25.7242 3.892 26.0082 3.668 26.3522 3.508C26.7042 3.34 27.0882 3.256 27.5042 3.256ZM35.6898 10L33.4338 7.168V10H31.7538V1.12H33.4338V6.172L35.6658 3.352H37.8498L34.9218 6.688L37.8738 10H35.6898ZM41.3056 10.108C40.7616 10.108 40.2736 10.012 39.8416 9.82C39.4096 9.62 39.0656 9.352 38.8096 9.016C38.5616 8.68 38.4256 8.308 38.4016 7.9H40.0936C40.1256 8.156 40.2496 8.368 40.4656 8.536C40.6896 8.704 40.9656 8.788 41.2936 8.788C41.6136 8.788 41.8616 8.724 42.0376 8.596C42.2216 8.468 42.3136 8.304 42.3136 8.104C42.3136 7.888 42.2016 7.728 41.9776 7.624C41.7616 7.512 41.4136 7.392 40.9336 7.264C40.4376 7.144 40.0296 7.02 39.7096 6.892C39.3976 6.764 39.1256 6.568 38.8936 6.304C38.6696 6.04 38.5576 5.684 38.5576 5.236C38.5576 4.868 38.6616 4.532 38.8696 4.228C39.0856 3.924 39.3896 3.684 39.7816 3.508C40.1816 3.332 40.6496 3.244 41.1856 3.244C41.9776 3.244 42.6096 3.444 43.0816 3.844C43.5536 4.236 43.8136 4.768 43.8616 5.44H42.2536C42.2296 5.176 42.1176 4.968 41.9176 4.816C41.7256 4.656 41.4656 4.576 41.1376 4.576C40.8336 4.576 40.5976 4.632 40.4296 4.744C40.2696 4.856 40.1896 5.012 40.1896 5.212C40.1896 5.436 40.3016 5.608 40.5256 5.728C40.7496 5.84 41.0976 5.956 41.5696 6.076C42.0496 6.196 42.4456 6.32 42.7576 6.448C43.0696 6.576 43.3376 6.776 43.5616 7.048C43.7936 7.312 43.9136 7.664 43.9216 8.104C43.9216 8.488 43.8136 8.832 43.5976 9.136C43.3896 9.44 43.0856 9.68 42.6856 9.856C42.2936 10.024 41.8336 10.108 41.3056 10.108ZM51.208 4.732H50.044V10H48.34V4.732H47.584V3.352H48.34V3.016C48.34 2.2 48.572 1.6 49.036 1.216C49.5 0.832 50.2 0.652 51.136 0.676V2.092C50.728 2.084 50.444 2.152 50.284 2.296C50.124 2.44 50.044 2.7 50.044 3.076V3.352H51.208V4.732ZM55.2488 10.108C54.6088 10.108 54.0328 9.968 53.5208 9.688C53.0088 9.4 52.6048 8.996 52.3088 8.476C52.0208 7.956 51.8768 7.356 51.8768 6.676C51.8768 5.996 52.0248 5.396 52.3208 4.876C52.6248 4.356 53.0368 3.956 53.5568 3.676C54.0768 3.388 54.6568 3.244 55.2968 3.244C55.9368 3.244 56.5168 3.388 57.0368 3.676C57.5568 3.956 57.9648 4.356 58.2608 4.876C58.5648 5.396 58.7168 5.996 58.7168 6.676C58.7168 7.356 58.5608 7.956 58.2487 8.476C57.9448 8.996 57.5288 9.4 57.0008 9.688C56.4808 9.968 55.8968 10.108 55.2488 10.108ZM55.2488 8.644C55.5528 8.644 55.8368 8.572 56.1008 8.428C56.3728 8.276 56.5888 8.052 56.7488 7.756C56.9088 7.46 56.9888 7.1 56.9888 6.676C56.9888 6.044 56.8208 5.56 56.4848 5.224C56.1568 4.88 55.7528 4.708 55.2728 4.708C54.7928 4.708 54.3888 4.88 54.0608 5.224C53.7408 5.56 53.5808 6.044 53.5808 6.676C53.5808 7.308 53.7368 7.796 54.0488 8.14C54.3688 8.476 54.7688 8.644 55.2488 8.644ZM61.6291 4.384C61.8451 4.032 62.1251 3.756 62.4691 3.556C62.8211 3.356 63.2211 3.256 63.6691 3.256V5.02H63.2251C62.6971 5.02 62.2971 5.144 62.0251 5.392C61.7611 5.64 61.6291 6.072 61.6291 6.688V10H59.9491V3.352H61.6291V4.384Z" fill="black"/>
<path d="M67.228 6.676C67.228 5.988 67.368 5.388 67.648 4.876C67.928 4.356 68.316 3.956 68.812 3.676C69.308 3.388 69.876 3.244 70.516 3.244C71.34 3.244 72.02 3.452 72.556 3.868C73.1 4.276 73.464 4.852 73.648 5.596H71.836C71.74 5.308 71.576 5.084 71.344 4.924C71.12 4.756 70.84 4.672 70.504 4.672C70.024 4.672 69.644 4.848 69.364 5.2C69.084 5.544 68.944 6.036 68.944 6.676C68.944 7.308 69.084 7.8 69.364 8.152C69.644 8.496 70.024 8.668 70.504 8.668C71.184 8.668 71.628 8.364 71.836 7.756H73.648C73.464 8.476 73.1 9.048 72.556 9.472C72.012 9.896 71.332 10.108 70.516 10.108C69.876 10.108 69.308 9.968 68.812 9.688C68.316 9.4 67.928 9 67.648 8.488C67.368 7.968 67.228 7.364 67.228 6.676ZM77.8308 10.108C77.1908 10.108 76.6148 9.968 76.1028 9.688C75.5908 9.4 75.1868 8.996 74.8908 8.476C74.6028 7.956 74.4588 7.356 74.4588 6.676C74.4588 5.996 74.6068 5.396 74.9028 4.876C75.2068 4.356 75.6188 3.956 76.1388 3.676C76.6588 3.388 77.2388 3.244 77.8788 3.244C78.5188 3.244 79.0988 3.388 79.6188 3.676C80.1388 3.956 80.5468 4.356 80.8428 4.876C81.1468 5.396 81.2988 5.996 81.2988 6.676C81.2988 7.356 81.1428 7.956 80.8308 8.476C80.5268 8.996 80.1108 9.4 79.5828 9.688C79.0628 9.968 78.4788 10.108 77.8308 10.108ZM77.8308 8.644C78.1348 8.644 78.4188 8.572 78.6828 8.428C78.9548 8.276 79.1708 8.052 79.3308 7.756C79.4908 7.46 79.5708 7.1 79.5708 6.676C79.5708 6.044 79.4028 5.56 79.0668 5.224C78.7388 4.88 78.3348 4.708 77.8548 4.708C77.3748 4.708 76.9708 4.88 76.6428 5.224C76.3228 5.56 76.1628 6.044 76.1628 6.676C76.1628 7.308 76.3188 7.796 76.6308 8.14C76.9508 8.476 77.3508 8.644 77.8308 8.644ZM90.7871 3.256C91.6031 3.256 92.2591 3.508 92.7551 4.012C93.2591 4.508 93.5111 5.204 93.5111 6.1V10H91.8311V6.328C91.8311 5.808 91.6991 5.412 91.4351 5.14C91.1711 4.86 90.8111 4.72 90.3551 4.72C89.8991 4.72 89.5351 4.86 89.2631 5.14C88.9991 5.412 88.8671 5.808 88.8671 6.328V10H87.1871V6.328C87.1871 5.808 87.0551 5.412 86.7911 5.14C86.5271 4.86 86.1671 4.72 85.7111 4.72C85.2471 4.72 84.8791 4.86 84.6071 5.14C84.3431 5.412 84.2111 5.808 84.2111 6.328V10H82.5311V3.352H84.2111V4.156C84.4271 3.876 84.7031 3.656 85.0391 3.496C85.3831 3.336 85.7591 3.256 86.1671 3.256C86.6871 3.256 87.1511 3.368 87.5591 3.592C87.9671 3.808 88.2831 4.12 88.5071 4.528C88.7231 4.144 89.0351 3.836 89.4431 3.604C89.8591 3.372 90.3071 3.256 90.7871 3.256ZM95.9573 2.56C95.6613 2.56 95.4133 2.468 95.2133 2.284C95.0213 2.092 94.9253 1.856 94.9253 1.576C94.9253 1.296 95.0213 1.064 95.2133 0.879999C95.4133 0.687999 95.6613 0.592 95.9573 0.592C96.2533 0.592 96.4973 0.687999 96.6893 0.879999C96.8893 1.064 96.9893 1.296 96.9893 1.576C96.9893 1.856 96.8893 2.092 96.6893 2.284C96.4973 2.468 96.2533 2.56 95.9573 2.56ZM96.7853 3.352V10H95.1053V3.352H96.7853ZM102.129 3.256C102.921 3.256 103.561 3.508 104.049 4.012C104.537 4.508 104.781 5.204 104.781 6.1V10H103.101V6.328C103.101 5.8 102.969 5.396 102.705 5.116C102.441 4.828 102.081 4.684 101.625 4.684C101.161 4.684 100.793 4.828 100.521 5.116C100.257 5.396 100.125 5.8 100.125 6.328V10H98.4452V3.352H100.125V4.18C100.349 3.892 100.633 3.668 100.977 3.508C101.329 3.34 101.713 3.256 102.129 3.256ZM108.983 3.244C109.479 3.244 109.915 3.344 110.291 3.544C110.667 3.736 110.963 3.988 111.179 4.3V3.352H112.871V10.048C112.871 10.664 112.747 11.212 112.499 11.692C112.251 12.18 111.879 12.564 111.383 12.844C110.887 13.132 110.287 13.276 109.583 13.276C108.639 13.276 107.863 13.056 107.255 12.616C106.655 12.176 106.315 11.576 106.235 10.816H107.903C107.991 11.12 108.179 11.36 108.467 11.536C108.763 11.72 109.119 11.812 109.535 11.812C110.023 11.812 110.419 11.664 110.723 11.368C111.027 11.08 111.179 10.64 111.179 10.048V9.016C110.963 9.328 110.663 9.588 110.279 9.796C109.903 10.004 109.471 10.108 108.983 10.108C108.423 10.108 107.911 9.964 107.447 9.676C106.983 9.388 106.615 8.984 106.343 8.464C106.079 7.936 105.947 7.332 105.947 6.652C105.947 5.98 106.079 5.384 106.343 4.864C106.615 4.344 106.979 3.944 107.435 3.664C107.899 3.384 108.415 3.244 108.983 3.244ZM111.179 6.676C111.179 6.268 111.099 5.92 110.939 5.632C110.779 5.336 110.563 5.112 110.291 4.96C110.019 4.8 109.727 4.72 109.415 4.72C109.103 4.72 108.815 4.796 108.551 4.948C108.287 5.1 108.071 5.324 107.903 5.62C107.743 5.908 107.663 6.252 107.663 6.652C107.663 7.052 107.743 7.404 107.903 7.708C108.071 8.004 108.287 8.232 108.551 8.392C108.823 8.552 109.111 8.632 109.415 8.632C109.727 8.632 110.019 8.556 110.291 8.404C110.563 8.244 110.779 8.02 110.939 7.732C111.099 7.436 111.179 7.084 111.179 6.676ZM116.684 1.48L116.492 7.276H115.076L114.872 1.48H116.684ZM115.82 10.084C115.516 10.084 115.264 9.992 115.064 9.808C114.872 9.616 114.776 9.38 114.776 9.1C114.776 8.82 114.872 8.588 115.064 8.404C115.264 8.212 115.516 8.116 115.82 8.116C116.116 8.116 116.36 8.212 116.552 8.404C116.744 8.588 116.84 8.82 116.84 9.1C116.84 9.38 116.744 9.616 116.552 9.808C116.36 9.992 116.116 10.084 115.82 10.084Z" fill="#EE5626"/>
<path d="M66.832 11.2H117.932V11.8H66.832V11.2Z" fill="#EE5626"/>
</svg>
